<mxfile host="Electron" agent="Mozilla/5.0 (X11; Linux x86_64) AppleWebKit/537.36 (KHTML, like Gecko) draw.io/25.0.2 Chrome/128.0.6613.186 Electron/32.2.5 Safari/537.36" version="25.0.2">
  <diagram name="Page-1" id="n-FXMEAy9oxuontUpVUs">
    <mxGraphModel dx="989" dy="626" grid="1" gridSize="10" guides="1" tooltips="1" connect="1" arrows="1" fold="1" page="1" pageScale="1" pageWidth="1600" pageHeight="900" math="0" shadow="0">
      <root>
        <mxCell id="0" />
        <mxCell id="1" parent="0" />
        <mxCell id="_F3gEzlBTKT1Emf4fUUt-1" value="Depth" style="text;html=1;align=center;verticalAlign=middle;whiteSpace=wrap;rounded=0;rotation=-90;" vertex="1" parent="1">
          <mxGeometry x="580" y="340" width="80" height="40" as="geometry" />
        </mxCell>
        <mxCell id="_F3gEzlBTKT1Emf4fUUt-2" value="(" style="text;strokeColor=none;align=center;fillColor=none;html=1;verticalAlign=middle;whiteSpace=wrap;rounded=0;fontSize=24;" vertex="1" parent="1">
          <mxGeometry x="680" y="440" width="40" height="40" as="geometry" />
        </mxCell>
        <mxCell id="_F3gEzlBTKT1Emf4fUUt-3" value="(" style="text;strokeColor=none;align=center;fillColor=none;html=1;verticalAlign=middle;whiteSpace=wrap;rounded=0;fontSize=24;" vertex="1" parent="1">
          <mxGeometry x="720" y="440" width="40" height="40" as="geometry" />
        </mxCell>
        <mxCell id="_F3gEzlBTKT1Emf4fUUt-4" value=")" style="text;strokeColor=none;align=center;fillColor=none;html=1;verticalAlign=middle;whiteSpace=wrap;rounded=0;fontSize=24;" vertex="1" parent="1">
          <mxGeometry x="760" y="440" width="40" height="40" as="geometry" />
        </mxCell>
        <mxCell id="_F3gEzlBTKT1Emf4fUUt-5" value="(" style="text;strokeColor=none;align=center;fillColor=none;html=1;verticalAlign=middle;whiteSpace=wrap;rounded=0;fontSize=24;" vertex="1" parent="1">
          <mxGeometry x="800" y="440" width="40" height="40" as="geometry" />
        </mxCell>
        <mxCell id="_F3gEzlBTKT1Emf4fUUt-6" value=")" style="text;strokeColor=none;align=center;fillColor=none;html=1;verticalAlign=middle;whiteSpace=wrap;rounded=0;fontSize=24;" vertex="1" parent="1">
          <mxGeometry x="840" y="440" width="40" height="40" as="geometry" />
        </mxCell>
        <mxCell id="_F3gEzlBTKT1Emf4fUUt-7" value="(" style="text;strokeColor=none;align=center;fillColor=none;html=1;verticalAlign=middle;whiteSpace=wrap;rounded=0;fontSize=24;" vertex="1" parent="1">
          <mxGeometry x="880" y="440" width="40" height="40" as="geometry" />
        </mxCell>
        <mxCell id="_F3gEzlBTKT1Emf4fUUt-8" value=")" style="text;strokeColor=none;align=center;fillColor=none;html=1;verticalAlign=middle;whiteSpace=wrap;rounded=0;fontSize=24;" vertex="1" parent="1">
          <mxGeometry x="920" y="440" width="40" height="40" as="geometry" />
        </mxCell>
        <mxCell id="_F3gEzlBTKT1Emf4fUUt-9" value=")" style="text;strokeColor=none;align=center;fillColor=none;html=1;verticalAlign=middle;whiteSpace=wrap;rounded=0;fontSize=24;" vertex="1" parent="1">
          <mxGeometry x="960" y="440" width="40" height="40" as="geometry" />
        </mxCell>
        <mxCell id="_F3gEzlBTKT1Emf4fUUt-10" value=")" style="text;strokeColor=none;align=center;fillColor=none;html=1;verticalAlign=middle;whiteSpace=wrap;rounded=0;fontSize=24;" vertex="1" parent="1">
          <mxGeometry x="1000" y="440" width="40" height="40" as="geometry" />
        </mxCell>
        <mxCell id="_F3gEzlBTKT1Emf4fUUt-13" value="(" style="text;strokeColor=none;align=center;fillColor=none;html=1;verticalAlign=middle;whiteSpace=wrap;rounded=0;fontSize=24;" vertex="1" parent="1">
          <mxGeometry x="1040" y="440" width="40" height="40" as="geometry" />
        </mxCell>
        <mxCell id="_F3gEzlBTKT1Emf4fUUt-14" value="" style="endArrow=none;html=1;rounded=0;" edge="1" parent="1">
          <mxGeometry width="50" height="50" relative="1" as="geometry">
            <mxPoint x="680" y="400" as="sourcePoint" />
            <mxPoint x="760" y="320" as="targetPoint" />
          </mxGeometry>
        </mxCell>
        <mxCell id="_F3gEzlBTKT1Emf4fUUt-15" value="" style="endArrow=none;html=1;rounded=0;" edge="1" parent="1">
          <mxGeometry width="50" height="50" relative="1" as="geometry">
            <mxPoint x="800" y="360" as="sourcePoint" />
            <mxPoint x="760" y="320" as="targetPoint" />
          </mxGeometry>
        </mxCell>
        <mxCell id="_F3gEzlBTKT1Emf4fUUt-16" value="" style="endArrow=none;html=1;rounded=0;" edge="1" parent="1">
          <mxGeometry width="50" height="50" relative="1" as="geometry">
            <mxPoint x="800" y="360" as="sourcePoint" />
            <mxPoint x="840" y="320" as="targetPoint" />
          </mxGeometry>
        </mxCell>
        <mxCell id="_F3gEzlBTKT1Emf4fUUt-17" value="" style="endArrow=none;html=1;rounded=0;" edge="1" parent="1">
          <mxGeometry width="50" height="50" relative="1" as="geometry">
            <mxPoint x="880" y="360" as="sourcePoint" />
            <mxPoint x="840" y="320" as="targetPoint" />
          </mxGeometry>
        </mxCell>
        <mxCell id="_F3gEzlBTKT1Emf4fUUt-18" value="" style="endArrow=none;html=1;rounded=0;" edge="1" parent="1">
          <mxGeometry width="50" height="50" relative="1" as="geometry">
            <mxPoint x="880" y="360" as="sourcePoint" />
            <mxPoint x="920" y="320" as="targetPoint" />
          </mxGeometry>
        </mxCell>
        <mxCell id="_F3gEzlBTKT1Emf4fUUt-19" value="" style="endArrow=none;html=1;rounded=0;" edge="1" parent="1">
          <mxGeometry width="50" height="50" relative="1" as="geometry">
            <mxPoint x="1000" y="400" as="sourcePoint" />
            <mxPoint x="920" y="320" as="targetPoint" />
          </mxGeometry>
        </mxCell>
        <mxCell id="_F3gEzlBTKT1Emf4fUUt-20" value="0" style="text;strokeColor=none;align=center;fillColor=none;html=1;verticalAlign=middle;whiteSpace=wrap;rounded=0;" vertex="1" parent="1">
          <mxGeometry x="640" y="390" width="40" height="20" as="geometry" />
        </mxCell>
        <mxCell id="_F3gEzlBTKT1Emf4fUUt-21" value="" style="endArrow=none;html=1;rounded=0;entryX=1;entryY=0;entryDx=0;entryDy=0;fontColor=#FF0000;strokeColor=#FF0000;" edge="1" parent="1" target="_F3gEzlBTKT1Emf4fUUt-10">
          <mxGeometry width="50" height="50" relative="1" as="geometry">
            <mxPoint x="1000" y="400" as="sourcePoint" />
            <mxPoint x="920" y="320" as="targetPoint" />
          </mxGeometry>
        </mxCell>
        <mxCell id="_F3gEzlBTKT1Emf4fUUt-22" value="-1" style="text;strokeColor=none;align=center;fillColor=none;html=1;verticalAlign=middle;whiteSpace=wrap;rounded=0;" vertex="1" parent="1">
          <mxGeometry x="640" y="430" width="40" height="20" as="geometry" />
        </mxCell>
        <mxCell id="_F3gEzlBTKT1Emf4fUUt-23" value="1" style="text;strokeColor=none;align=center;fillColor=none;html=1;verticalAlign=middle;whiteSpace=wrap;rounded=0;" vertex="1" parent="1">
          <mxGeometry x="640" y="350" width="40" height="20" as="geometry" />
        </mxCell>
        <mxCell id="_F3gEzlBTKT1Emf4fUUt-24" value="2" style="text;strokeColor=none;align=center;fillColor=none;html=1;verticalAlign=middle;whiteSpace=wrap;rounded=0;" vertex="1" parent="1">
          <mxGeometry x="640" y="310" width="40" height="20" as="geometry" />
        </mxCell>
        <mxCell id="_F3gEzlBTKT1Emf4fUUt-25" value="" style="endArrow=none;html=1;rounded=0;entryX=1;entryY=0;entryDx=0;entryDy=0;fontColor=#FF0000;strokeColor=#FF0000;" edge="1" parent="1" target="_F3gEzlBTKT1Emf4fUUt-10">
          <mxGeometry width="50" height="50" relative="1" as="geometry">
            <mxPoint x="1080" y="400" as="sourcePoint" />
            <mxPoint x="1040" y="440" as="targetPoint" />
          </mxGeometry>
        </mxCell>
        <mxCell id="_F3gEzlBTKT1Emf4fUUt-27" value="(" style="text;strokeColor=none;align=center;fillColor=none;html=1;verticalAlign=middle;whiteSpace=wrap;rounded=0;fontSize=24;" vertex="1" parent="1">
          <mxGeometry x="1080" y="440" width="40" height="40" as="geometry" />
        </mxCell>
        <mxCell id="_F3gEzlBTKT1Emf4fUUt-28" value="(" style="text;strokeColor=none;align=center;fillColor=none;html=1;verticalAlign=middle;whiteSpace=wrap;rounded=0;fontSize=24;" vertex="1" parent="1">
          <mxGeometry x="1120" y="440" width="40" height="40" as="geometry" />
        </mxCell>
        <mxCell id="_F3gEzlBTKT1Emf4fUUt-29" value="(" style="text;strokeColor=none;align=center;fillColor=none;html=1;verticalAlign=middle;whiteSpace=wrap;rounded=0;fontSize=24;" vertex="1" parent="1">
          <mxGeometry x="1160" y="440" width="40" height="40" as="geometry" />
        </mxCell>
        <mxCell id="_F3gEzlBTKT1Emf4fUUt-31" value=")" style="text;strokeColor=none;align=center;fillColor=none;html=1;verticalAlign=middle;whiteSpace=wrap;rounded=0;fontSize=24;" vertex="1" parent="1">
          <mxGeometry x="1200" y="440" width="40" height="40" as="geometry" />
        </mxCell>
        <mxCell id="_F3gEzlBTKT1Emf4fUUt-32" value=")" style="text;strokeColor=none;align=center;fillColor=none;html=1;verticalAlign=middle;whiteSpace=wrap;rounded=0;fontSize=24;" vertex="1" parent="1">
          <mxGeometry x="1240" y="440" width="40" height="40" as="geometry" />
        </mxCell>
        <mxCell id="_F3gEzlBTKT1Emf4fUUt-33" value=")" style="text;strokeColor=none;align=center;fillColor=none;html=1;verticalAlign=middle;whiteSpace=wrap;rounded=0;fontSize=24;" vertex="1" parent="1">
          <mxGeometry x="1280" y="440" width="40" height="40" as="geometry" />
        </mxCell>
        <mxCell id="_F3gEzlBTKT1Emf4fUUt-34" value="" style="endArrow=none;html=1;rounded=0;fontColor=#FF0000;strokeColor=#000000;" edge="1" parent="1">
          <mxGeometry width="50" height="50" relative="1" as="geometry">
            <mxPoint x="1080" y="400" as="sourcePoint" />
            <mxPoint x="1200" y="280" as="targetPoint" />
          </mxGeometry>
        </mxCell>
        <mxCell id="_F3gEzlBTKT1Emf4fUUt-35" value="" style="endArrow=none;html=1;rounded=0;fontColor=#FF0000;strokeColor=#000000;" edge="1" parent="1">
          <mxGeometry width="50" height="50" relative="1" as="geometry">
            <mxPoint x="1320" y="400" as="sourcePoint" />
            <mxPoint x="1200" y="280" as="targetPoint" />
          </mxGeometry>
        </mxCell>
      </root>
    </mxGraphModel>
  </diagram>
</mxfile>
